HIERARCHY
ROOT Hips
{
  OFFSET -10.0563 7.73376 -472.55
  CHANNELS 6 Xposition Yposition Zposition Zrotation Xrotation Yrotation
  JOINT Spine
  {
    OFFSET 0 0 0
    CHANNELS 3 Zrotation Xrotation Yrotation
    JOINT Spine1
    {
      OFFSET 19 0 0
      CHANNELS 3 Zrotation Xrotation Yrotation
      JOINT Neck
      {
        OFFSET 22.5 0.6 0
        CHANNELS 3 Zrotation Xrotation Yrotation
        JOINT Head
        {
          OFFSET 14 0.0308777 0
          CHANNELS 3 Zrotation Xrotation Yrotation
          End Site
          {
            OFFSET 17 0 0
          }
        }
      }
      JOINT LeftShoulder
      {
        OFFSET 19.8 3.7 4.3
        CHANNELS 3 Zrotation Xrotation Yrotation
        JOINT LeftArm
        {
          OFFSET 8 0 0
          CHANNELS 3 Zrotation Xrotation Yrotation
          JOINT LeftForeArm
          {
            OFFSET 15.2 0 0
            CHANNELS 3 Zrotation Xrotation Yrotation
            JOINT LeftHand
            {
              OFFSET 17.8 0 0
              CHANNELS 3 Zrotation Xrotation Yrotation
              End Site
              {
                OFFSET 7.2 0 0
              }
            }
          }
        }
      }
      JOINT RightShoulder
      {
        OFFSET 19.8 3.7 -4.3
        CHANNELS 3 Zrotation Xrotation Yrotation
        JOINT RightArm
        {
          OFFSET 8 0 0.151654
          CHANNELS 3 Zrotation Xrotation Yrotation
          JOINT RightForeArm
          {
            OFFSET 15.2 0 0
            CHANNELS 3 Zrotation Xrotation Yrotation
            JOINT RightHand
            {
              OFFSET 17.8 0 0
              CHANNELS 3 Zrotation Xrotation Yrotation
              End Site
              {
                OFFSET 7.2 0 0
              }
            }
          }
        }
      }
    }
  }
  JOINT LeftUpLeg
  {
    OFFSET 5.98425 -7.666 4.78879
    CHANNELS 3 Zrotation Xrotation Yrotation
    JOINT LeftLeg
    {
      OFFSET 16 0 0
      CHANNELS 3 Zrotation Xrotation Yrotation
      JOINT LeftFoot
      {
        OFFSET 18 0 0
        CHANNELS 3 Zrotation Xrotation Yrotation
        End Site
        {
          OFFSET 0 -10.8 0
        }
      }
    }
  }
  JOINT RightUpLeg
  {
    OFFSET 5.98425 -7.66598 -4.78879
    CHANNELS 3 Zrotation Xrotation Yrotation
    JOINT RightLeg
    {
      OFFSET 16 0 0
      CHANNELS 3 Zrotation Xrotation Yrotation
      JOINT RightFoot
      {
        OFFSET 18 0 0
        CHANNELS 3 Zrotation Xrotation Yrotation
        End Site
        {
          OFFSET 0 -10.8 0
        }
      }
    }
  }
  JOINT Tail
  {
    OFFSET 6.83696 -0.722574 0
    CHANNELS 3 Zrotation Xrotation Yrotation
    JOINT Tail1
    {
      OFFSET 12 0 0
      CHANNELS 3 Zrotation Xrotation Yrotation
      End Site
      {
        OFFSET 12 0 0
      }
    }
  }
}
MOTION
Frames:	14
Frame Time:	0.0166667
71.9044 14.3414 87.244 -38.0153 -25.6419 86.9048 -137.549 12.3365 1.44421 -32.9627 5.30848 13.0762 -11.172 5.45431 11.5077 -164.955 84.1521 -168.83 -112.435 -40.9417 -135.38 101.172 22.7231 -127.541 -55.8932 -57.2268 58.1699 8.6748 0.75655 -29.4361 75.8143 -28.5536 42.9057 48.1833 -15.4902 -43.7333 -106.005 30.7504 -22.3831 8.3519 1.07475 9.66788 -172.432 -33.7536 -33.9139 136.332 41.2159 -4.35754 -10.6285 -2.62038 -4.07261 -123.344 -31.8796 9.81474 135.894 9.53198 -3.10356 -7.37315 -4.10249 -9.78555 -3.94091 -5.10426 -4.84034 13.4778 -30.6032 -1.76638 
71.8985 14.3361 87.2427 -38.0033 -25.646 86.9277 -137.521 12.3423 1.42166 -33.0449 5.28922 13.1247 -11.1871 5.31785 11.6177 -162.887 84.1156 -170.978 -112.463 -40.88 -135.549 101.213 22.841 -127.656 -55.8232 -57.2223 58.2456 8.6281 0.773861 -29.4557 75.8363 -28.5391 42.9497 48.1052 -15.5129 -43.7672 -105.913 30.7966 -22.3655 8.39639 1.05202 9.89006 -172.462 -33.7594 -33.8979 136.356 41.1926 -4.36411 -10.6248 -2.61869 -4.04928 -123.297 -31.9301 9.87859 135.891 9.46195 -3.11368 -7.48627 -4.10243 -9.79816 -3.92339 -5.11123 -4.85652 13.5085 -30.5755 -1.78492 
71.893 14.3483 87.2427 -37.9404 -25.6817 86.9265 -137.457 12.3062 1.40024 -33.1118 5.23325 13.1587 -11.2509 5.21721 11.6883 -160.533 84.019 -173.586 -112.436 -40.8724 -135.499 101.667 22.7344 -128.206 -56.4239 -57.0791 57.6088 8.63127 0.775965 -29.3086 75.8791 -28.4821 42.9622 48.055 -15.4902 -43.8278 -105.891 30.6757 -22.3243 8.35617 1.05387 9.82142 -172.359 -33.8096 -33.8672 136.324 41.2058 -4.3553 -10.6753 -2.61727 -4.06774 -123.261 -32.0311 9.94711 135.913 9.36614 -3.12182 -7.44454 -4.10263 -9.79027 -3.86361 -5.07063 -4.84514 13.5214 -30.5345 -1.82672 
71.8827 14.3508 87.2486 -37.957 -25.6993 86.9262 -137.477 12.3108 1.41258 -33.0553 5.23874 13.1613 -11.3486 4.97438 11.8148 -157.328 83.9602 -177.105 -112.425 -40.9229 -135.389 101.988 22.5054 -128.697 -57.3095 -56.8659 56.7912 8.59423 0.774194 -29.0628 75.8757 -28.469 42.9157 47.9359 -15.5492 -43.7785 -105.898 30.7433 -22.2811 8.30426 1.02315 10.0313 -172.382 -33.7844 -33.9055 136.4 41.2031 -4.39264 -10.6913 -2.61685 -4.09012 -123.299 -31.9949 9.88496 135.942 9.3683 -3.12074 -7.4014 -4.10296 -9.77423 -3.81937 -5.10408 -4.87216 13.4597 -30.503 -1.85722 
71.882 14.3487 87.2643 -37.9422 -25.6467 86.9623 -137.643 12.3022 1.50725 -32.8562 5.23734 13.1119 -11.5393 4.69933 11.9008 -152.721 83.7458 178.096 -112.441 -40.9571 -135.368 101.514 22.5575 -128.218 -56.7049 -57.0858 57.5027 8.57694 0.777667 -29.2249 75.8186 -28.5264 42.8519 48.0425 -15.6001 -43.752 -105.948 30.8548 -22.3125 8.27788 1.01793 9.99546 -172.431 -33.7905 -33.9428 136.425 41.2759 -4.40157 -10.6578 -2.61723 -4.09595 -123.293 -31.9556 9.89364 135.963 9.44551 -3.11304 -7.27887 -4.10309 -9.77765 -3.88332 -5.08095 -4.90247 13.4212 -30.5176 -1.85677 
71.8837 14.3528 87.2723 -37.9588 -25.6111 86.9611 -137.753 12.2823 1.51734 -32.7535 5.23626 13.0949 -11.6592 4.37649 12.0432 -148.167 83.5023 173.404 -112.467 -40.9205 -135.491 101.273 22.7037 -127.903 -55.9963 -57.3131 58.206 8.55634 0.794147 -29.4023 75.8423 -28.5261 42.9388 48.1653 -15.6815 -43.8204 -106.011 30.6934 -22.2829 8.25686 1.04596 9.63118 -172.45 -33.7594 -33.9598 136.428 41.3155 -4.40723 -10.6565 -2.61814 -4.08847 -123.326 -31.9312 9.89073 135.969 9.45658 -3.11073 -7.27062 -4.10329 -9.77904 -3.92017 -5.07996 -4.93423 13.4476 -30.5254 -1.83262 
71.8797 14.3655 87.2718 -37.9027 -25.6293 86.9629 -137.776 12.2519 1.51595 -32.7368 5.21451 13.0807 -11.6028 4.05368 12.2326 -144.495 83.3117 169.224 -112.452 -40.8907 -135.506 101.423 22.7096 -127.99 -55.8475 -57.3728 58.287 8.63953 0.787635 -29.4168 75.9134 -28.4404 42.982 48.0176 -15.6622 -43.7528 -105.998 30.5672 -22.2137 8.17711 1.03586 9.65271 -172.363 -33.7909 -33.9267 136.38 41.3325 -4.38848 -10.691 -2.61923 -4.10667 -123.355 -31.9811 9.92619 136.01 9.42211 -3.11866 -7.23444 -4.10367 -9.76794 -3.8966 -5.0106 -4.95019 13.481 -30.5184 -1.83079 
71.8721 14.3694 87.2704 -37.8466 -25.6419 86.974 -137.909 12.2097 1.5118 -32.4949 5.16848 13.1583 -11.6312 3.86567 12.3246 -142.345 83.159 166.389 -112.413 -40.9781 -135.266 101.266 22.541 -127.768 -56.2346 -57.2546 57.9793 8.57874 0.785865 -29.3068 75.8179 -28.534 42.869 48.0924 -15.5075 -43.6971 -105.932 30.6954 -22.2927 8.10537 1.01802 9.73138 -172.341 -33.8339 -33.9332 136.366 41.3451 -4.3788 -10.6861 -2.62039 -4.12226 -123.361 -31.9922 9.92582 136.036 9.47248 -3.12071 -7.15355 -4.10405 -9.76013 -3.89618 -4.93655 -4.9504 13.4774 -30.5327 -1.833 
71.8678 14.3626 87.27 -37.8489 -25.6327 86.9664 -138.005 12.1928 1.51597 -32.3689 5.17604 13.1424 -11.5646 3.67274 12.5717 -140.957 83.0984 164.368 -112.442 -40.9898 -135.315 101.163 22.5175 -127.643 -56.2193 -57.2774 58.0467 8.52413 0.800508 -29.3005 75.7886 -28.5859 42.8935 48.232 -15.5618 -43.6908 -105.957 30.7586 -22.3145 8.10951 1.0168 9.64956 -172.41 -33.8437 -33.9875 136.397 41.3521 -4.39029 -10.6579 -2.62149 -4.11098 -123.34 -31.9868 9.92742 136.027 9.51672 -3.1203 -7.17511 -4.10424 -9.7704 -3.91652 -4.93397 -4.93041 13.4753 -30.5516 -1.81354 
71.8748 14.3655 87.2613 -37.8897 -25.6509 86.9221 -137.958 12.1698 1.47311 -32.4244 5.18287 13.1073 -11.247 3.43116 12.9546 -139.992 83.1704 162.393 -112.456 -40.915 -135.473 101.304 22.6521 -127.729 -55.8114 -57.4084 58.3716 8.58813 0.806738 -29.4243 75.8411 -28.5169 42.9105 48.2353 -15.5625 -43.6909 -105.952 30.715 -22.3022 8.17603 1.03312 9.52637 -172.397 -33.8082 -34.028 136.378 41.3746 -4.38615 -10.6486 -2.62225 -4.09419 -123.328 -31.9979 9.8984 136.038 9.50949 -3.11804 -7.16523 -4.10451 -9.77592 -3.91493 -4.9587 -4.88698 13.5191 -30.577 -1.78724 
71.8796 14.3663 87.2569 -37.9482 -25.6475 86.8916 -137.932 12.1676 1.38595 -32.4703 5.17854 13.1858 -11.0509 3.26843 13.1579 -139.111 83.1711 160.718 -112.428 -40.9141 -135.409 101.291 22.6598 -127.611 -55.64 -57.4448 58.4622 8.61486 0.803913 -29.4889 75.8356 -28.5097 42.8719 48.2079 -15.4934 -43.6419 -105.943 30.6536 -22.3112 8.20069 1.04847 9.51897 -172.4 -33.7338 -34.0072 136.367 41.3498 -4.37571 -10.6638 -2.62248 -4.0798 -123.387 -31.963 9.83286 136.022 9.46692 -3.11514 -7.2297 -4.10491 -9.77222 -3.91901 -4.99908 -4.89843 13.5451 -30.5831 -1.77417 
71.8817 14.3616 87.2595 -37.9184 -25.6231 86.9097 -137.943 12.1567 1.3542 -32.4606 5.1413 13.2712 -11.1199 3.21798 13.1685 -137.823 82.9294 159.165 -112.39 -40.9856 -135.2 101.184 22.52 -127.473 -55.9391 -57.3558 58.2139 8.59925 0.791499 -29.4386 75.7473 -28.6135 42.8122 48.246 -15.4615 -43.585 -105.97 30.7029 -22.3404 8.20585 1.049 9.59884 -172.392 -33.7698 -33.9341 136.332 41.3111 -4.35446 -10.6834 -2.62229 -4.0836 -123.383 -31.9763 9.88504 135.972 9.44624 -3.11345 -7.25422 -4.1053 -9.77184 -3.93982 -4.97318 -4.91199 13.5227 -30.5805 -1.77416 
71.8835 14.3521 87.2568 -37.9736 -25.6286 86.8883 -137.861 12.1425 1.25717 -32.5109 5.1144 13.3748 -11.1627 3.12182 13.2889 -136.648 82.7365 157.785 -112.385 -41.0455 -135.087 101.089 22.4438 -127.436 -56.1785 -57.2883 58.0465 8.56001 0.787522 -29.4223 75.6538 -28.7105 42.7171 48.3407 -15.3881 -43.6025 -105.942 30.8452 -22.4126 8.2413 1.04401 9.70977 -172.455 -33.7438 -33.9636 136.382 41.2732 -4.38031 -10.6753 -2.62188 -4.07516 -123.398 -31.9201 9.80024 135.969 9.57384 -3.10187 -7.16448 -4.10579 -9.76451 -3.94731 -5.02867 -4.87911 13.5092 -30.593 -1.78723 
71.8894 14.3454 87.2609 -37.9871 -25.582 86.9071 -137.813 12.1396 1.2247 -32.6435 5.08026 13.43 -11.1287 3.07152 13.4086 -135.822 82.5483 156.786 -112.391 -41.0492 -135.096 100.971 22.5454 -127.406 -55.6334 -57.4507 58.5761 8.65583 0.775265 -29.5856 75.6287 -28.7201 42.6498 48.4187 -15.3676 -43.6314 -105.941 30.9218 -22.4596 8.32741 1.05428 9.71746 -172.506 -33.7372 -33.9367 136.373 41.2609 -4.37712 -10.6568 -2.62133 -4.05881 -123.416 -31.9134 9.80119 135.974 9.5767 -3.09994 -7.17155 -4.10607 -9.77612 -3.99096 -5.06843 -4.87088 13.5113 -30.5849 -1.78565 
